<svg xmlns="http://www.w3.org/2000/svg" width="96" height="96"><path fill="#fcd401" d="M66.75 10.75C75.794 17.226 81.617 26.077 84 37c.906 14.994-.874 25.68-10 38l8 1v-6c4.184 3.509 8.196 7.08 12 11-1.534 3.656-3.75 5.987-6.562 8.75l-2.442 2.422C83 94 83 94 82 94v-6H0V76l10-1-2.75-3.812C.144 60.31-1.403 49.77 0 37c2.312-10.923 8.797-20.676 18-27 15.913-8.52 33.228-8.766 48.75.75M18 28c-5.088 8-5.725 15.633-5 25 1.82 7.124 6.137 13.447 12.281 17.508 8.348 4.743 16.88 6.239 26.395 3.808C60.639 70.586 65.976 64.728 70 56c2.256-6.767 2.126-15.328-.625-21.937-3.892-7.373-9.266-13.061-17.137-16.145C38.984 14.161 27.032 17.865 18 28"/><path fill="#7a848d" d="m37 24 2 1c4.051.259 5.543.304 9-2 3.084.197 5.48.775 8.313 2 2.368 2.807 2.107 5.327 2.351 8.906.167 2.287.167 2.287 2.211 4.094 2.23 1.1 2.23 1.1 5.125 2v11l-2.937 1.438C60.195 53.702 60.195 53.702 59 55c.058 1.439.147 2.876.25 4.313.048 4.346.048 4.346-2.437 7.187-2.797 1.491-4.646 2.419-7.813 2.5a499 499 0 0 1-4-3c-3.478-.435-5.228-.585-8.062 1.563C35 69 35 69 32.562 69 28.984 67.603 27.3 66.087 25 63c-.172-2.004-.172-2.004-.062-4.125.51-3.845.51-3.845-1.75-5.812C20.91 51.898 20.91 51.898 18 51V40l2.938-1.437C23.805 37.298 23.805 37.298 25 36c.079-1.437.138-2.874.188-4.312.39-3.887.572-4.46 3.562-7.313C32.235 22.9 33.504 22.737 37 24"/><path fill="#2bb273" d="m0 46 2.188 1.625c2.72 1.718 2.72 1.718 5.437.625L10 47l3-1 .262 1.871C14.932 57.943 18.41 64.624 26.8 70.63c3.94 2.456 7.22 3.303 11.824 3.621C42 75 42 75 44.563 77.75 46 81 46 81 45.375 83.75 44 86 44 86 42 88c-1.835.24-1.835.24-4.083.227H35.37l-2.753-.032-2.816-.008c-2.976-.011-5.95-.037-8.926-.062q-3.022-.016-6.043-.027Q7.416 88.063 0 88V76l10-1-2.75-3.812C1.93 63.158-.632 55.63 0 46"/><path fill="#c665e6" d="m37.75 3.938 2.422.027L42 4l-1.625 2.188c-1.693 2.708-1.693 2.708-.75 5.437C40.906 13.838 42.171 15.252 44 17l-2.309.262c-9.699 1.32-17.295 3.958-23.476 11.851-2.794 4.339-4.1 8.511-4.527 13.637C13 46 13 46 10.25 48.563 7 50 7 50 4.25 49.375 2 48 2 48 0 46c-1.04-10.929 3.14-20.595 10-29C17.086 9.276 27.115 3.781 37.75 3.938"/><path fill="#d92230" d="M45.938 3.625c10.24.263 19.578 5.344 27 12.152 6.617 6.974 11.267 16.253 11.124 25.973l-.027 2.422L84 46l-2.187-1.625c-2.72-1.718-2.72-1.718-5.438-.625L74 45l-3 1-.262-1.871c-1.613-9.722-4.989-16.738-13.062-22.64-4.043-2.25-8.27-3.331-12.758-4.372-3.525-1.35-4.83-3.033-6.918-6.117 2.527-6.86 2.527-6.86 7.938-7.375"/><path fill="#dadddf" d="M47 34c3.225 1.639 5.283 3.99 7.375 6.938 1.32 4.353 1.107 7.136-1 11.187-3.296 3.99-6.184 6.51-11.375 7.375-4.559-.76-7.584-2.919-10.645-6.336C28.962 49.344 29.247 45.344 30 41c3.874-7.16 9.447-8.043 17-7"/><path fill="#0078d9" d="m0 46 2.188 1.625c2.72 1.718 2.72 1.718 5.437.625L10 47l3-1 .262 1.871c1.625 9.799 5.029 16.764 13.18 22.688C30.711 72.965 35.217 74.06 40 75v1c-4.02.199-8.037.343-12.06.44q-2.05.06-4.097.164c-11.299.56-11.299.56-15.03-2.253C7.24 72.299 6.089 70.339 5 68l-1.426-2.61-.886-2.14-.926-2.172C.399 57.361-.121 54.216-.062 50.25l.027-2.422z"/><path fill="#0c75d9" d="M82 70c4.184 3.509 8.196 7.08 12 11-1.534 3.656-3.75 5.987-6.562 8.75l-2.442 2.422C83 94 83 94 82 94v-6H49c2.832-1.888 4.985-2.72 8.188-3.75 3.93-1.36 6.693-2.762 9.812-5.5 4.11-3.407 7.692-3.257 12.875-2.96L82 76z"/><path fill="#145d9d" d="M45 38c2.938 1.5 2.938 1.5 5 4 .935 4.003.614 6.977-1.5 10.5-3.536 2.122-6.479 2.291-10.5 1.5-2.5-1.5-2.5-1.5-4-4-.797-4.05-.641-6.974 1.563-10.5 3.4-2.093 5.508-2.051 9.437-1.5"/><path fill="#0d6fc9" d="m0 46 2.188 1.625c2.727 1.72 2.727 1.72 5.5.625L10 47l2-1c-1.875 3.875-1.875 3.875-3 5-2 .04-4 .043-6 0v-2H0z"/><path fill="#2d82be" d="M60 87c-1 1-1 1-3.285 1.098l-2.778-.035-2.785-.028L49 88c4.316-2.877 6.439-3.77 11-1"/><path fill="#dec806" d="M42 75h3c1.837 3.782 2.158 5.946 1 10l-2-1v-4a78 78 0 0 0-2-5"/><path fill="#1973bf" d="m71 76 2 1c-1.375 1.5-1.375 1.5-3 3h-2l-1 3-4-1z"/></svg>